<?xml version='1.0' encoding='utf-8'?>
<svg width="90.5mm" height="60.5mm" viewBox="-45.25 -30.25 90.5 60.5" version="1.1" xmlns="http://www.w3.org/2000/svg">
  <g transform="scale(1,-1)" stroke-linecap="round">
    <g fill="none" stroke="rgb(0,0,255)" stroke-width="0.09" id="Stick_area">
      <path d="M -45.0,26.0 L -45.0,-26.0 A 4.0,4.0 -90.0 0,1 -41.0,-30.0 L -39.433488,-30.0 A 4.0,4.0 -75.54739665701314 0,1 -38.435172,-29.873418 A 154.0,154.0 75.54739665701315 0,0 38.435172,-29.873418 A 4.0,4.0 -90.0 0,1 39.433488,-30.0 L 41.0,-30.0 A 4.0,4.0 -2.5444437451708134e-14 0,1 45.0,-26.0 L 45.0,26.0 A 4.0,4.0 90.0 0,1 41.0,30.0 L 39.433488,30.0 A 4.0,4.0 104.45260334298686 0,1 38.435172,29.873418 A 154.0,154.0 -104.45260334298688 0,0 -38.435172,29.873418 A 4.0,4.0 90.0 0,1 -39.433488,30.0 L -41.0,30.0 A 4.0,4.0 180.0 0,1 -45.0,26.0 M 34.5,-14.5 L 5.5,-14.5 L 5.5,14.5 L 34.5,14.5 L 34.5,-14.5" />
    </g>
    <g fill="rgb(255,0,0)" stroke="rgb(0,0,255)" stroke-width="0.09" id="crop">
      <path d="M -44.0,26.0 L -44.0,-26.0 A 3.0,3.0 -90.0 0,1 -41.0,-29.0 L -39.433488,-29.0 A 2.999999999999999,2.999999999999999 -75.54739665701314 0,1 -38.684751,-28.905063 A 155.0,155.0 75.54739665701315 0,0 38.684751,-28.905063 A 3.0,3.0 -90.0 0,1 39.433488,-29.0 L 41.0,-29.0 A 3.0,3.0 -2.5444437451708134e-14 0,1 44.0,-26.0 L 44.0,26.0 A 3.0,3.0 90.0 0,1 41.0,29.0 L 39.433488,29.0 A 2.999999999999999,2.999999999999999 104.45260334298686 0,1 38.684751,28.905063 A 155.0,155.0 -104.45260334298688 0,0 -38.684751,28.905063 A 3.0,3.0 90.0 0,1 -39.433488,29.0 L -41.0,29.0 A 3.0,3.0 180.0 0,1 -44.0,26.0 M 34.5,-15.5 L 5.5,-15.5 A 1.0,1.0 0.0 0,0 4.5,-14.5 L 4.5,14.5 A 1.0,1.0 -90.0 0,0 5.5,15.5 L 34.5,15.5 A 1.0,1.0 180.0 0,0 35.5,14.5 L 35.5,-14.5 A 1.0,1.0 90.0 0,0 34.5,-15.5" />
    </g>
  </g>
</svg>